<?xml version="1.0" standalone="no"?>
<!DOCTYPE svg PUBLIC "-//W3C//DTD SVG 20010904//EN"
 "http://www.w3.org/TR/2001/REC-SVG-20010904/DTD/svg10.dtd">
<svg version="1.0" xmlns="http://www.w3.org/2000/svg"
 width="1280.000000pt" height="768.000000pt" viewBox="0 0 1280.000000 768.000000"
 preserveAspectRatio="xMidYMid meet">
<metadata>
Created by potrace 1.15, written by Peter Selinger 2001-2017
</metadata>
<g transform="translate(0.000000,768.000000) scale(0.100000,-0.100000)"
fill="#000000" stroke="none">
<path d="M11140 7661 c-47 -11 -173 -50 -280 -86 -107 -36 -301 -93 -430 -126
-283 -73 -354 -96 -486 -158 -245 -117 -643 -368 -959 -606 -193 -145 -279
-216 -455 -377 -179 -163 -300 -269 -369 -322 l-61 -47 -51 41 c-29 22 -57 39
-63 37 -19 -6 -31 -55 -20 -84 7 -21 16 -27 32 -26 13 2 25 -3 28 -11 3 -8
-19 -76 -49 -153 -30 -76 -110 -289 -177 -473 -198 -543 -380 -990 -646 -1577
-82 -182 -123 -263 -134 -263 -9 0 -31 -13 -50 -30 -43 -36 -50 -36 -80 -5
-16 17 -27 22 -34 15 -16 -16 -35 -12 -70 15 -40 30 -41 30 -73 5 -25 -20
-113 -29 -113 -12 0 4 9 57 19 117 57 328 51 635 -18 876 -23 82 -83 233 -128
324 -69 138 -147 215 -218 215 -97 0 -203 -136 -375 -482 -109 -221 -163 -382
-231 -688 -65 -294 -60 -282 -85 -239 -26 43 -98 132 -190 234 -39 44 -96 114
-125 156 -30 42 -74 103 -97 135 -24 33 -63 93 -86 134 -59 105 -304 490 -329
518 -29 31 -63 29 -82 -7 -8 -16 -22 -87 -32 -158 -25 -184 -25 -694 -1 -843
21 -130 70 -322 103 -404 27 -69 33 -75 -103 102 -51 66 -149 186 -217 266
-200 233 -307 366 -386 477 -117 168 -158 216 -213 254 -77 53 -118 61 -168
35 -22 -11 -43 -19 -46 -16 -3 3 -33 61 -66 128 -90 181 -107 173 -56 -27 17
-64 30 -120 30 -125 0 -4 -80 -35 -177 -68 -665 -225 -1239 -496 -1703 -805
-161 -106 -396 -282 -535 -399 -55 -46 -156 -130 -225 -187 -210 -174 -273
-242 -417 -446 -146 -207 -253 -406 -346 -640 -73 -185 -84 -233 -92 -405 -8
-183 3 -240 54 -292 49 -49 90 -56 167 -28 274 100 499 136 783 127 183 -6
300 -26 451 -77 148 -51 343 -160 475 -267 l50 -41 120 43 c66 23 201 75 300
115 540 217 710 264 940 263 244 -1 394 -66 692 -298 59 -47 110 -85 113 -85
3 0 14 14 23 30 28 46 124 146 189 196 189 146 470 196 729 129 101 -26 235
-79 474 -187 249 -113 430 -188 588 -243 l108 -38 -8 -76 c-16 -153 -9 -210
33 -260 29 -35 57 -39 80 -12 9 10 24 16 34 14 23 -6 29 35 36 245 l6 154 40
-79 c120 -234 336 -469 512 -558 37 -18 66 -25 110 -25 75 0 293 -31 458 -64
96 -20 428 -107 495 -131 8 -2 36 40 71 108 31 62 115 216 185 343 70 126 140
267 157 312 38 105 54 235 47 392 -9 208 -39 331 -131 550 -47 111 -48 136 -3
89 17 -20 59 -54 92 -77 33 -23 82 -58 109 -78 29 -20 59 -34 72 -32 12 2 31
-5 42 -15 24 -22 37 -8 28 29 -8 30 1 30 32 1 23 -22 24 -22 38 -3 8 11 14 35
14 53 0 88 -99 174 -220 192 l-44 6 83 94 c46 52 149 183 229 290 178 239 294
361 422 446 218 146 502 238 810 262 l95 8 12 140 c51 572 273 1091 646 1508
96 108 601 616 668 673 43 36 49 46 74 134 61 218 195 505 329 709 183 277
476 583 696 726 161 105 208 175 180 268 -17 59 -187 225 -296 290 -261 155
-615 236 -1094 251 -150 5 -187 3 -260 -13z"/>
</g>
</svg>
