<?xml version="1.0" encoding="utf-8"?>
<!-- Generator: Adobe Illustrator 24.0.3, SVG Export Plug-In . SVG Version: 6.00 Build 0)  -->
<!DOCTYPE svg PUBLIC "-//W3C//DTD SVG 1.1//EN" "http://www.w3.org/Graphics/SVG/1.1/DTD/svg11.dtd" [
	<!ENTITY ns_extend "http://ns.adobe.com/Extensibility/1.0/">
	<!ENTITY ns_ai "http://ns.adobe.com/AdobeIllustrator/10.0/">
	<!ENTITY ns_graphs "http://ns.adobe.com/Graphs/1.0/">
	<!ENTITY ns_vars "http://ns.adobe.com/Variables/1.0/">
	<!ENTITY ns_imrep "http://ns.adobe.com/ImageReplacement/1.0/">
	<!ENTITY ns_sfw "http://ns.adobe.com/SaveForWeb/1.0/">
	<!ENTITY ns_custom "http://ns.adobe.com/GenericCustomNamespace/1.0/">
	<!ENTITY ns_adobe_xpath "http://ns.adobe.com/XPath/1.0/">
]>
<svg version="1.1" id="Layer_1" xmlns:x="&ns_extend;" xmlns:i="&ns_ai;" xmlns:graph="&ns_graphs;"
	 xmlns="http://www.w3.org/2000/svg" xmlns:xlink="http://www.w3.org/1999/xlink" x="0px" y="0px" viewBox="0 0 470.4 631.5"
	 style="enable-background:new 0 0 470.4 631.5;" xml:space="preserve">
<style type="text/css">
	.st0{fill-rule:evenodd;clip-rule:evenodd;}
	.st1{fill:none;stroke:#000000;stroke-width:6.4421;stroke-miterlimit:5.6692;}
	.st2{fill:none;stroke:#000000;stroke-width:5.1537;stroke-miterlimit:5.6692;}
	.st3{fill:none;stroke:#000000;stroke-width:12.8842;stroke-linecap:round;stroke-linejoin:round;stroke-miterlimit:5.6692;}
	.st4{fill:none;stroke:#000000;stroke-width:12.8842;stroke-linejoin:round;stroke-miterlimit:5.6692;}
	.st5{fill:none;stroke:#000000;stroke-width:12.8842;stroke-miterlimit:5.6692;}
</style>
<metadata>
	<sfw  xmlns="&ns_sfw;">
		<slices></slices>
		<sliceSourceBounds  bottomLeftOrigin="true" height="631.5" width="470.4" x="0" y="0"></sliceSourceBounds>
	</sfw>
</metadata>
<g transform="translate(-130.81 -361)">
	<g transform="matrix(1.4173 0 0 1.4173 -56.901 332.73)">
		<path class="st0" d="M294.9,259.7c-9.7,7.4-11.9,9.8-17.2,18c-1.9,3.1-5.6,10.5-6.5,15.4c-1,4.9-1.7,12.1-1.7,15.9
			c0,12.9,4.1,20.9,8.6,20.6c4-0.5,9.1-4.6,16.8-14.1"/>
		<path class="st0" d="M301.9,259.9c9.7,7.4,11.9,9.8,17.2,18c1.9,3.1,5.6,10.5,6.5,15.4c1,4.9,1.7,12.1,1.7,15.9
			c0,12.9-4.1,20.9-8.6,20.6c-4-0.5-9.1-4.6-16.8-14.1"/>
		<path class="st0" d="M212.5,203.6c13.5-2.4,26.5-3.9,40-5.4c17.6-4.4,26.5,15.7,21.6,30.8c-6.1,13.5-14.7,25.3-24.6,36.6
			c-7.6,8.6-16.7,10-25.4,7.1c-7-1.9-13.5-6.2-20.4-16.2c-3.1-8.6-5.7-13-9.6-23.7C191.1,222.8,195.8,208.1,212.5,203.6L212.5,203.6
			z"/>
		<path class="st0" d="M384.6,203.6c-13.5-2.4-26.5-3.9-40-5.4c-17.6-4.4-26.5,15.7-21.6,30.8c6.1,13.5,14.7,25.3,24.6,36.6
			c7.6,8.6,16.7,10,25.4,7.1c7-1.9,13.5-6.2,20.4-16.2c3.1-8.6,5.7-13,9.6-23.7C405.9,222.8,401.2,208.1,384.6,203.6L384.6,203.6z"
			/>
	</g>
	<g transform="matrix(1.4173 0 0 1.4173 -56.901 335.59)">
		<path class="st1" d="M212.2,318.5c5.7,13.3,7.4,18.4,11.6,31.7c3.5,12.3,4.8,19.8,6.9,37.3"/>
		<path class="st1" d="M384.1,317.8c-5.7,13.3-7.5,18.4-11.6,31.7c-3.5,12.3-4.8,19.8-6.9,37.3"/>
		<path class="st2" d="M236.5,349.7c14.7,9,40.2,10.4,63,10c25.4-0.1,47.1-2,61.4-10.6"/>
		<path class="st2" d="M241.7,373.3c16.2,10.2,35.3,13.7,57.3,12.9c22.8-0.6,40.4-2.5,56-13.2"/>
		<path class="st1" d="M229.9,385.6c17.4,20.9,41.6,24.6,69.2,25.3c29.5,1.1,59.2-10.6,66.8-25.3"/>
		<g>
			<path class="st2" d="M241.4,354.3l-0.4,41.2"/>
			<path class="st2" d="M255,358.6l-0.2,44.1"/>
			<path class="st2" d="M270,360.5l-0.4,46.2"/>
			<path class="st2" d="M283.5,361.5l-0.2,46.8"/>
			<path class="st2" d="M298.7,362v46.8"/>
			<path class="st2" d="M313.2,361.7l0.2,46.8"/>
			<path class="st2" d="M326.4,360.5l0.4,46"/>
			<path class="st2" d="M341.6,358l0.2,44.1"/>
			<path class="st2" d="M355.3,352.6l0.4,41.6"/>
		</g>
		<g>
			<path class="st3" d="M171.5,235.6c-19.1-18.6-32.5-50.9-34.4-85.8c-2-38.4,18.2-76.6,48.5-98.3c34-23.9,90.8-30.5,126.1-28.7
				c23.9,0,77.2,12.4,96,26.4c33,24,50.7,58,51.9,96.8c1.8,39-14.6,68.7-34.7,87.2"/>
			<path class="st4" d="M172.7,126.3c-7.8,6.8-6.8,17-5.4,32.2c1.1,11.6,8.5,22.9,8.9,33.5c2.7,22.3-3.9,44.6-7,62.8
				c-2.1,20.9,3.9,38.9,11.6,45.9c7.8,6.9,17.8,9.7,28.3,12.9c9.6,2.5,14.5,6.8,21.7,12.2c8.6,9.1,10.7,16.7,10.5,26"/>
			<path class="st4" d="M425.1,125.7c7.8,6.8,6.8,17,5.4,32.2c-1.1,11.6-8.5,22.9-8.9,33.5c-2.7,22.3,3.9,44.6,7,62.8
				c2.1,20.9-3.9,38.9-11.6,45.9c-7.8,6.9-21.9,10.6-28.3,12.9c-7.4,2.6-14.9,7.3-21.7,12.6c-8.2,7.9-10.7,16.3-10.5,25.6"/>
			<path class="st5" d="M194.8,311c6.9,16.8,14.3,33.2,15,50.4c-3.2,13.9-2.2,30.2,1.2,43.3c4.4,17.9,21.8,39.1,39.1,46.2
				c17.8,6.5,28.9,8.1,48.7,8.1"/>
			<path class="st5" d="M401.9,311c-6.9,16.8-14.3,33.2-15,50.4c3.2,13.9,2.2,30.2-1.2,43.3c-4.4,17.9-22,38.5-39.3,45.6
				c-17.3,7.1-28.4,8.7-48.3,8.7"/>
		</g>
	</g>
</g>
</svg>
